PathFileType	4	(X/Y/Z)	Kaydara																																																																																																																									
DataRate	CameraRate	NumFrames	NumMarkers	Units	OrigDataRate	OrigDataStartFrame	OrigNumFrames																																																																																																																					
30	30	6	41	mm	30	1	232																																																																																																																					
Frame#	Time	EMLA_LFHD			EMLA_RFHD			EMLA_LBHD			EMLA_RBHD			EMLA_LFTShould			EMLA_RFTShould			EMLA_LRRShould			EMLA_RRRShould			EMLA_T10			EMLA_STRN			EMLA_TRUN			EMLA_LSHO			EMLA_LUPA			EMLA_LELB			EMLA_LFRM			EMLA_LWRA			EMLA_LWRB			EMLA_LFIN			EMLA_RSHO			EMLA_RUPA			EMLA_RELB			EMLA_RFRM			EMLA_RWRA			EMLA_RWRB			EMLA_RFIN			EMLA_LFWT			EMLA_RFWT			EMLA_LBWT			EMLA_RBWT			EMLA_LTHI			EMLA_LKNE			EMLA_LSHN			EMLA_LANK			EMLA_LHEE			EMLA_LTOE			EMLA_RTHI			EMLA_RKNE			EMLA_RSHN			EMLA_RANK			EMLA_RHEE			EMLA_RTOE		
		X1	Y1	Z1	X2	Y2	Z2	X3	Y3	Z3	X4	Y4	Z4	X5	Y5	Z5	X6	Y6	Z6	X7	Y7	Z7	X8	Y8	Z8	X9	Y9	Z9	X10	Y10	Z10	X11	Y11	Z11	X12	Y12	Z12	X13	Y13	Z13	X14	Y14	Z14	X15	Y15	Z15	X16	Y16	Z16	X17	Y17	Z17	X18	Y18	Z18	X19	Y19	Z19	X20	Y20	Z20	X21	Y21	Z21	X22	Y22	Z22	X23	Y23	Z23	X24	Y24	Z24	X25	Y25	Z25	X26	Y26	Z26	X27	Y27	Z27	X28	Y28	Z28	X29	Y29	Z29	X30	Y30	Z30	X31	Y31	Z31	X32	Y32	Z32	X33	Y33	Z33	X34	Y34	Z34	X35	Y35	Z35	X36	Y36	Z36	X37	Y37	Z37	X38	Y38	Z38	X39	Y39	Z39	X40	Y40	Z40	X41	Y41	Z41
																																																																																																																												
1	0.01	246.88499	1638.03879	-1968.84827	77.10064	1635.4953	-1975.03876	265.65067	1624.93271	-2119.84177	71.38986	1624.58832	-2127.79327	250.30949	1404.31839	-2025.5307	98.47948	1395.06271	-2022.04773	239.34937	1446.50864	-2175.7222	84.6296	1437.4295	-2169.43649	173.78536	1268.2695	-2211.04645	175.6741	1336.7746	-1981.84448	172.13366	1234.49875	-1957.267	373.31097	1424.5961	-2084.15817	430.81791	1242.4369	-2094.51218	451.85123	1098.85452	-2092.08771	451.33759	962.84157	-2074.80179	368.15006	827.03384	-1983.02414	426.45927	803.12073	-2039.69223	419.99809	775.72098	-1974.99222	-23.34848	1423.86047	-2083.77197	-75.74182	1227.95883	-2067.98218	-89.49249	1081.58165	-2074.73297	-87.40601	981.7115	-2070.05447	-10.61962	834.68239	-1954.65317	-58.13155	806.81229	-2019.66141	-68.06746	782.27936	-1960.84961	278.57859	994.58862	-1971.58737	43.12341	979.39529	-1982.2525	255.81972	1013.21442	-2170.50095	80.63131	1011.77818	-2164.46198	303.12176	727.51923	-2157.45514	307.70855	523.67207	-2116.06857	279.13996	342.50725	-2105.2478	280.84869	165.67768	-2177.85568	215.68695	85.15504	-2237.21832	247.05662	74.44863	-2037.79114	55.06947	713.69125	-2176.97952	23.19415	511.75259	-2123.97614	67.89311	290.61911	-2120.96634	34.45098	131.41795	-2204.85504	92.80397	78.27084	-2256.53046	52.48464	71.9688	-2056.3205
2	0.043	247.94497	1638.33817	-1969.90677	77.6904	1635.67032	-1975.63095	266.20729	1624.84222	-2120.45746	71.93408	1624.64371	-2128.31589	250.55838	1404.50378	-2025.9845	99.85055	1396.53976	-2020.2681	239.90124	1446.50803	-2176.04538	85.15614	1437.50305	-2170.01114	174.27406	1268.27286	-2211.38855	175.8551	1336.79535	-1982.18796	172.16337	1234.55818	-1957.73499	373.63873	1424.47098	-2084.18716	431.04115	1242.29134	-2094.31198	451.88519	1098.64342	-2091.49445	451.12671	962.65381	-2073.992	367.48245	827.17461	-1982.13745	425.96252	803.09692	-2038.60046	419.28165	775.77637	-1973.90549	-22.92494	1423.99109	-2084.46854	-75.53361	1228.12416	-2068.75122	-89.4542	1081.87294	-2075.48691	-87.50004	981.97227	-2070.80444	-11.3917	834.80293	-1955.17166	-58.48475	807.03087	-2020.40176	-68.76435	782.46254	-1961.66702	278.67018	994.55292	-1971.66122	43.35549	979.52713	-1982.6387	256.18006	1013.10059	-2170.65964	80.9568	1011.75354	-2164.77982	303.49903	727.57492	-2157.65533	307.8425	523.59451	-2116.16333	279.22113	342.54452	-2105.36453	280.92962	165.64466	-2177.89215	215.74675	85.15105	-2237.2258	247.06987	74.46441	-2037.79648	55.09182	713.64883	-2177.07428	23.25345	511.78375	-2123.99063	67.92611	290.60484	-2120.98709	34.44367	131.41803	-2204.87518	92.80371	78.27137	-2256.53061	52.45985	71.94209	-2056.33484
3	0.077	247.72902	1638.04413	-1969.89502	78.00362	1635.88074	-1976.27396	266.63361	1624.70856	-2121.02783	72.34903	1624.73633	-2128.93387	250.72292	1404.37103	-2026.22269	99.75953	1396.05469	-2021.22391	240.43074	1446.42776	-2176.35666	85.63034	1437.51556	-2170.49927	174.80244	1268.23273	-2211.74866	175.96806	1336.82938	-1982.63107	172.27179	1234.59167	-1958.11905	373.93353	1424.27109	-2083.99384	431.31222	1242.19215	-2093.90427	452.05795	1098.5199	-2091.03317	451.021	962.50923	-2073.31467	366.86691	827.34703	-1981.53351	425.39005	803.07343	-2037.71378	418.41793	775.76065	-1972.91962	-22.52189	1424.05472	-2085.14923	-75.3753	1228.29239	-2069.53918	-89.47136	1082.05284	-2076.32584	-87.63473	982.1698	-2071.64993	-12.19173	835.0174	-1955.48111	-58.8401	807.19803	-2021.20255	-69.56807	782.55615	-1962.58301	278.82771	994.63318	-1971.70273	43.4099	979.60838	-1983.06274	256.50618	1013.06763	-2170.78049	81.31456	1011.7524	-2165.10696	303.61872	727.65427	-2157.78519	307.88982	523.57075	-2116.31012	279.25932	342.56199	-2105.53146	280.93796	165.66784	-2177.98172	215.81818	85.04972	-2237.18765	247.05561	74.46226	-2037.80945	55.32184	713.62129	-2177.27097	23.3672	511.79234	-2124.03519	67.98082	290.59168	-2120.98618	34.49423	131.43093	-2204.9118	92.82442	78.20376	-2256.55685	52.4928	71.97706	-2056.32538
4	0.11	248.52695	1638.1691	-1970.6665	78.45981	1635.95291	-1976.84402	267.0583	1624.63379	-2121.46271	72.83732	1624.8436	-2129.42825	251.10806	1404.22379	-2026.36215	100.01245	1395.85114	-2023.04108	240.94479	1446.33942	-2176.61911	86.20779	1437.53571	-2171.07254	175.2998	1268.18565	-2212.05719	176.0857	1336.6217	-1982.92892	172.28954	1234.60037	-1958.45673	374.28596	1424.13956	-2083.98758	431.66645	1242.03613	-2093.82935	452.267	1098.30956	-2090.66086	450.94826	962.25945	-2072.72614	366.50047	827.62962	-1980.85602	424.89021	803.0014	-2036.96991	417.59903	775.67978	-1972.13989	-22.15018	1424.16061	-2085.87448	-75.22742	1228.40088	-2070.29297	-89.50838	1082.20497	-2077.15256	-87.78446	982.24655	-2072.39456	-13.22035	835.09354	-1956.07544	-59.3968	807.31194	-2021.90689	-70.44965	782.69173	-1963.3313	278.74136	994.49333	-1972.04712	43.4505	979.76463	-1983.55545	256.77546	1013.0085	-2170.96039	81.64906	1011.69899	-2165.48737	303.86099	727.6358	-2157.87231	308.01142	523.64605	-2116.54633	279.33643	342.60448	-2105.65353	280.94772	165.63101	-2177.96097	215.81249	85.12165	-2237.14645	247.02677	74.4541	-2037.80792	55.50411	713.55942	-2177.46002	23.45377	511.83372	-2124.08051	68.05757	290.53097	-2120.97687	34.50881	131.41314	-2204.93561	92.86862	78.2077	-2256.56494	52.48446	71.9892	-2056.32736
5	0.143	248.9296	1638.21579	-1971.0968	78.87345	1636.11237	-1977.35229	267.5034	1624.66888	-2121.91315	73.29596	1624.89471	-2129.8642	251.36721	1404.18106	-2026.66672	100.24692	1396.19232	-2022.32803	241.46246	1446.31226	-2176.93207	86.67609	1437.56226	-2171.6275	175.75953	1268.15193	-2212.33505	176.41651	1336.83533	-1983.34305	172.43038	1234.65538	-1958.7912	374.73927	1424.18945	-2084.47845	431.94401	1241.91078	-2093.76007	452.5005	1098.16742	-2090.46341	450.95692	962.13448	-2072.3819	366.00021	827.75505	-1980.58029	424.55349	802.91771	-2036.46072	417.08412	775.66269	-1971.6452	-21.80138	1424.2691	-2086.58203	-75.03729	1228.57025	-2071.01715	-89.5309	1082.44553	-2077.84927	-87.98957	982.59888	-2073.13263	-13.72874	835.33005	-1956.66397	-60.09383	807.50145	-2022.59766	-71.21336	782.90161	-1963.98361	278.83142	994.62463	-1972.17178	43.52659	979.89052	-1983.99567	257.12339	1013.02803	-2171.23566	81.9771	1011.65771	-2165.93613	304.26775	727.64153	-2158.00766	308.09511	523.58082	-2116.4801	279.37246	342.58545	-2105.63339	281.01618	165.61607	-2177.96188	215.86439	85.03905	-2237.13043	247.01748	74.48193	-2037.79953	55.64937	713.5524	-2177.7179	23.481	511.81427	-2124.08112	68.06296	290.49089	-2120.98145	34.50716	131.37148	-2204.91074	92.84431	78.18684	-2256.54648	52.49198	71.98903	-2056.32431
6	0.177	249.15867	1638.23273	-1971.37558	79.23114	1636.20331	-1977.79007	267.94523	1624.69437	-2122.23755	73.76518	1624.96689	-2130.37338	251.53139	1404.11865	-2026.92856	101.24671	1396.86218	-2021.83243	241.8911	1446.30539	-2177.17239	87.08081	1437.68463	-2172.14264	176.11847	1268.15918	-2212.65762	176.53851	1336.90552	-1983.67157	172.43	1234.61678	-1959.16168	375.01705	1424.06982	-2084.5578	432.18243	1241.78474	-2093.75916	452.66556	1098.0526	-2090.40833	450.99613	961.99493	-2072.13394	365.73288	827.83134	-1980.32761	424.46888	802.85568	-2036.06445	416.68373	775.54893	-1971.34216	-21.43551	1424.42978	-2087.16125	-74.84311	1228.81294	-2071.64139	-89.54185	1082.72247	-2078.51364	-88.23907	982.92542	-2073.84949	-14.32046	835.29015	-1957.46674	-60.80608	807.7375	-2023.33923	-71.90171	783.13316	-1964.69116	278.96706	994.81422	-1972.2377	43.75405	980.01289	-1984.50577	257.4831	1012.97539	-2171.474	82.30286	1011.59988	-2166.36993	304.63615	727.62215	-2158.03314	308.23528	523.51566	-2116.42792	279.40899	342.51801	-2105.57465	281.0685	165.54884	-2177.88544	215.91642	85.05354	-2237.20596	246.99453	74.47217	-2037.79236	55.74214	713.5038	-2177.90222	23.5266	511.83216	-2124.13345	68.09778	290.49585	-2120.99457	34.50519	131.37672	-2204.94431	92.81898	78.14344	-2256.54953	52.50308	71.98584	-2056.34354
